<svg width="17" height="17" viewBox="0 0 17 17" fill="none" xmlns="http://www.w3.org/2000/svg">
<path d="M2.74322 12.0554L1.89069 6.96987C1.76179 6.20095 1.69735 5.81649 1.90373 5.5645C2.11011 5.3125 2.48943 5.3125 3.24808 5.3125H13.7518C14.5104 5.3125 14.8897 5.3125 15.0961 5.5645C15.3025 5.81649 15.238 6.20095 15.1092 6.96987L14.2566 12.0554C13.9741 13.741 13.8327 14.5838 13.2559 15.0836C12.6791 15.5833 11.8475 15.5833 10.1845 15.5833H6.81537C5.15231 15.5833 4.32077 15.5833 3.74392 15.0836C3.16707 14.5838 3.02578 13.741 2.74322 12.0554Z" stroke="#888888" stroke-width="1.5"/>
<path d="M12.3959 5.31252C12.3959 3.16091 10.6517 1.41669 8.50008 1.41669C6.34847 1.41669 4.60425 3.16091 4.60425 5.31252" stroke="#888888" stroke-width="1.5"/>
</svg>
