<svg width="25" height="29" viewBox="0 0 25 29" fill="none" xmlns="http://www.w3.org/2000/svg">
<g clip-path="url(#clip0_59_1250)">
<g clip-path="url(#clip1_59_1250)">
<g clip-path="url(#clip2_59_1250)">
<path d="M12.5 28C19.4036 28 25 22.4036 25 15.5C25 8.59644 19.4036 3 12.5 3C5.59644 3 0 8.59644 0 15.5C0 22.4036 5.59644 28 12.5 28Z" fill="#FCCF97"/>
<g clip-path="url(#clip3_59_1250)">
<path fill-rule="evenodd" clip-rule="evenodd" d="M8.17489 21.356C10.3959 23.223 14.2229 22.626 16.9249 19.925C19.3699 17.48 20.0899 14.114 18.8219 11.85C18.7732 12.0233 18.7166 12.2077 18.6519 12.403C18.3239 13.389 17.7579 14.655 16.8149 15.599C16.2749 16.139 15.6149 16.389 14.9559 16.509C14.3209 16.625 13.6409 16.625 13.0279 16.625H12.9999C12.3549 16.625 11.7809 16.627 11.2669 16.72C10.7659 16.811 10.3719 16.982 10.0689 17.285C9.32589 18.028 8.83689 19.081 8.53289 19.992C8.3845 20.4385 8.26492 20.8942 8.17489 21.356ZM7.17789 20.15C5.90989 17.886 6.62989 14.52 9.07489 12.075C11.7769 9.37301 15.6039 8.77801 17.8249 10.644L17.7779 10.874C17.7159 11.16 17.6159 11.559 17.4659 12.008C17.1629 12.918 16.6739 13.972 15.9309 14.715C15.6279 15.018 15.2339 15.189 14.7329 15.28C14.2189 15.373 13.6449 15.375 12.9999 15.375H12.9719C12.3589 15.375 11.6789 15.375 11.0439 15.49C10.3849 15.61 9.72489 15.861 9.18489 16.401C8.24189 17.345 7.67589 18.611 7.34789 19.597C7.28322 19.7917 7.22655 19.976 7.17789 20.15Z" fill="black"/>
</g>
</g>
</g>
</g>
<defs>
<clipPath id="clip0_59_1250">
<rect width="25" height="28.19" fill="white"/>
</clipPath>
<clipPath id="clip1_59_1250">
<rect width="25" height="28.19" fill="white"/>
</clipPath>
<clipPath id="clip2_59_1250">
<rect width="25" height="25" fill="white" transform="translate(0 3.19495)"/>
</clipPath>
<clipPath id="clip3_59_1250">
<rect width="14" height="14" fill="white" transform="translate(6 9)"/>
</clipPath>
</defs>
</svg>
