<svg width="16" height="16" viewBox="0 0 16 16" fill="none" xmlns="http://www.w3.org/2000/svg">
<path fill-rule="evenodd" clip-rule="evenodd" d="M4.5 0.5H11.5C12.5609 0.5 13.5783 0.921424 14.3284 1.67157C15.0786 2.42172 15.5 3.43913 15.5 4.5V11.5C15.5 12.5609 15.0786 13.5783 14.3284 14.3284C13.5783 15.0786 12.5609 15.5 11.5 15.5H4.5C3.43913 15.5 2.42172 15.0786 1.67157 14.3284C0.921424 13.5783 0.5 12.5609 0.5 11.5V4.5C0.5 3.43913 0.921424 2.42172 1.67157 1.67157C2.42172 0.921424 3.43913 0.5 4.5 0.5ZM4.5 2.5H11.5C12.0304 2.5 12.5391 2.71074 12.9142 3.08582C13.2893 3.46089 13.5 3.96957 13.5 4.5V11.5C13.5 12.0304 13.2893 12.5391 12.9142 12.9142C12.5391 13.2893 12.0304 13.5 11.5 13.5H4.5C3.96957 13.5 3.46089 13.2893 3.08582 12.9142C2.71074 12.5391 2.5 12.0304 2.5 11.5V4.5C2.5 3.96957 2.71074 3.46089 3.08582 3.08582C3.46089 2.71074 3.96957 2.5 4.5 2.5ZM8 4.5C8.69223 4.5 9.36895 4.70526 9.94452 5.08984C10.5201 5.47443 10.9687 6.02104 11.2336 6.66058C11.4985 7.30013 11.5678 8.00387 11.4327 8.6828C11.2977 9.36173 10.9643 9.98537 10.4748 10.4748C9.98537 10.9643 9.36173 11.2977 8.6828 11.4327C8.00387 11.5678 7.30013 11.4985 6.66058 11.2336C6.02104 10.9687 5.47443 10.5201 5.08984 9.94452C4.70526 9.36895 4.5 8.69223 4.5 8C4.5 7.07174 4.86877 6.18152 5.52515 5.52515C6.18152 4.86877 7.07174 4.5 8 4.5ZM8 6.5C8.29667 6.5 8.5867 6.58799 8.83337 6.75281C9.08005 6.91763 9.27227 7.15188 9.3858 7.42596C9.49933 7.70005 9.52907 8.00169 9.47119 8.29266C9.41331 8.58364 9.27045 8.85089 9.06067 9.06067C8.85089 9.27045 8.58364 9.41331 8.29266 9.47119C8.00169 9.52907 7.70005 9.49933 7.42596 9.3858C7.15188 9.27227 6.91763 9.08005 6.75281 8.83337C6.58799 8.5867 6.5 8.29667 6.5 8C6.5 7.60218 6.65803 7.22064 6.93933 6.93933C7.22064 6.65803 7.60218 6.5 8 6.5Z" fill="#212123"/>
</svg>
