<svg width="16" height="16" viewBox="0 0 16 16" fill="none" xmlns="http://www.w3.org/2000/svg">
<path d="M1.3335 13C1.3335 12.1159 1.68469 11.2681 2.30981 10.643C2.93493 10.0178 3.78277 9.66666 4.66683 9.66666H11.3335C12.2176 9.66666 13.0654 10.0178 13.6905 10.643C14.3156 11.2681 14.6668 12.1159 14.6668 13C14.6668 13.442 14.4912 13.8659 14.1787 14.1785C13.8661 14.4911 13.4422 14.6667 13.0002 14.6667H3.00016C2.55814 14.6667 2.13421 14.4911 1.82165 14.1785C1.50909 13.8659 1.3335 13.442 1.3335 13Z" stroke="#212123" stroke-width="1.66667" stroke-linejoin="round"/>
<path d="M8.00024 6.33334C9.38096 6.33334 10.5002 5.21406 10.5002 3.83334C10.5002 2.45263 9.38096 1.33334 8.00024 1.33334C6.61953 1.33334 5.50024 2.45263 5.50024 3.83334C5.50024 5.21406 6.61953 6.33334 8.00024 6.33334Z" stroke="#212123" stroke-width="1.66667"/>
</svg>
