<svg width="11" height="14" viewBox="0 0 11 14" fill="none" xmlns="http://www.w3.org/2000/svg">
<path fill-rule="evenodd" clip-rule="evenodd" d="M6.35844 8.78419C6.38173 8.76502 6.40491 8.74562 6.42784 8.72642C6.53556 8.63624 6.63784 8.55063 6.72155 8.51553C6.90197 8.43987 7.34187 8.62615 7.7891 8.89437C8.27492 9.18569 8.67415 9.47158 8.8115 9.7276C8.94886 9.98362 8.7871 10.623 8.56845 10.7512C8.34981 10.8794 8.19752 10.9653 7.76969 11.1572C7.34184 11.3492 6.53699 11.2948 6.21886 11.1276C6.15012 11.0914 6.08536 11.0571 6.02103 11.0211C5.78754 10.8907 5.55997 10.7393 5.17153 10.4056C4.88499 10.1595 4.61442 9.89449 4.36133 9.61338C4.18063 9.41268 4.00885 9.20374 3.84654 8.98755C3.62381 8.69088 3.41893 8.38055 3.23333 8.05907C3.04774 7.7376 2.88146 7.40498 2.73591 7.06375C2.63416 6.82518 2.54254 6.58239 2.46157 6.33625C2.33994 5.96652 2.2423 5.58923 2.17034 5.20726C2.07865 4.72055 2.05542 4.44255 2.05876 4.18528C2.05983 4.10321 2.0636 4.02325 2.06871 3.93931C2.08986 3.59218 2.41455 2.86958 2.8184 2.58136C3.17936 2.32374 3.34097 2.22805 3.50898 2.12856C3.52894 2.11674 3.54899 2.10486 3.56947 2.09267C3.7624 1.97774 4.42416 2.13384 4.57743 2.39398C4.7307 2.65411 4.77845 3.12961 4.78784 3.69604C4.7965 4.21743 4.77572 4.66548 4.58214 4.80995C4.48431 4.88297 4.32281 4.94288 4.17278 4.99855L4.17003 4.99957C4.02427 5.05364 3.88979 5.10376 3.83566 5.15803C3.72551 5.26847 3.54192 5.49738 3.68214 5.84805C3.68883 5.86478 3.69524 5.88082 3.7014 5.89623C3.82437 6.20386 3.84661 6.2595 3.95444 6.48756C4.098 6.79121 4.25252 7.08635 4.41894 7.37461C4.58536 7.66285 4.76368 7.94421 4.95485 8.22033L4.96373 8.23317C5.10815 8.44177 5.17124 8.53291 5.37254 8.77591C5.57791 9.02383 5.8314 9.07132 6.05301 8.98634C6.14987 8.94919 6.25533 8.86901 6.35844 8.78419ZM6.04416 6.18159C6.60731 5.60651 6.71141 4.88842 6.74122 4.68279L6.74151 4.6808C6.79499 4.31198 6.79337 3.92826 6.78896 3.6622C6.78369 3.3441 6.76728 2.9867 6.71722 2.64198C6.67226 2.33245 6.57593 1.84292 6.30193 1.37791C6.01151 0.885001 5.60254 0.612925 5.37488 0.483022C5.1138 0.334041 4.84847 0.235969 4.61779 0.172776C4.38729 0.109632 4.12136 0.0621487 3.8429 0.0544308C3.65153 0.0491294 3.09707 0.0451246 2.54543 0.373763C2.52611 0.385269 2.50673 0.396757 2.48708 0.408404C2.29845 0.520206 2.08436 0.647096 1.65595 0.95285C1.0819 1.36255 0.720811 1.93524 0.521744 2.32072C0.327016 2.69782 0.105601 3.25056 0.0710216 3.81833C0.0391928 4.34094 0.0541339 4.78524 0.203528 5.57826C0.435006 6.80699 0.880657 7.98719 1.49988 9.0598C2.11915 10.1325 2.91841 11.1087 3.8669 11.9235C4.49723 12.465 4.86163 12.675 5.28673 12.8986C5.83886 13.189 6.47409 13.2624 6.88105 13.2768C7.30766 13.2921 7.97041 13.2602 8.5886 12.9829C9.08605 12.7596 9.30268 12.64 9.58042 12.4772C10.1062 12.1689 10.3738 11.7205 10.4835 11.5151C10.621 11.2574 10.7111 10.994 10.7681 10.7599C10.8254 10.5243 10.8657 10.2509 10.8636 9.96185C10.8617 9.71019 10.8277 9.25177 10.5752 8.78125C10.3064 8.28022 9.90477 7.9372 9.66941 7.75191C9.39509 7.53595 9.09151 7.34169 8.81895 7.17824C8.53719 7.00928 8.20123 6.83082 7.85843 6.70232C7.68937 6.63894 7.45994 6.56526 7.19851 6.52612C7.02393 6.49999 6.67468 6.46294 6.2655 6.5649C6.18889 6.43871 6.11516 6.31102 6.04416 6.18159Z" fill="#212123"/>
</svg>
