<svg width="17" height="17" viewBox="0 0 17 17" fill="none" xmlns="http://www.w3.org/2000/svg">
<path fill-rule="evenodd" clip-rule="evenodd" d="M8.05096 0.00219727C4.09777 0.00219727 0.893066 3.20689 0.893066 7.16009C0.893066 11.1133 4.09777 14.318 8.05096 14.318C9.70511 14.318 11.2281 13.757 12.4402 12.8147L15.4709 15.8454C15.8204 16.1948 16.3868 16.1948 16.7363 15.8454C17.0857 15.496 17.0857 14.9295 16.7363 14.58L13.7056 11.5494C14.6478 10.3373 15.2088 8.8142 15.2088 7.16009C15.2088 3.20689 12.0041 0.00219727 8.05096 0.00219727ZM2.68254 7.16009C2.68254 4.19519 5.08607 1.79167 8.05096 1.79167C11.0159 1.79167 13.4193 4.19519 13.4193 7.16009C13.4193 10.1249 11.0159 12.5285 8.05096 12.5285C5.08607 12.5285 2.68254 10.1249 2.68254 7.16009Z" fill="#212123"/>
</svg>
