<svg width="41" height="34" viewBox="0 0 41 34" fill="none" xmlns="http://www.w3.org/2000/svg">
<path d="M4.38691 27V8.72121L5.98982 10.3804H0.22497V7.31515H8.04267V27H4.38691Z" fill="#212123"/>
<path d="M19.7675 25.7657L19.4421 26.1248V19.1455H20.8783V26.1248L20.5305 25.7657H24.1099L23.7621 26.1248V19.1455H25.1983V27H15.1109V19.1455H16.5471V26.1248L16.2105 25.7657H19.7675ZM25.9858 27L29.5204 19.1455H30.9566L34.5024 27H32.9764L29.9355 19.9197H30.519L27.4894 27H25.9858ZM27.6128 25.1822L28.0055 24.0377H32.247L32.6397 25.1822H27.6128ZM35.2973 27V19.1455H40.6272L40.616 20.3797H36.3857L36.7223 20.0319L36.7336 27H35.2973Z" fill="#212123"/>
</svg>
