<svg width="47" height="34" viewBox="0 0 47 34" fill="none" xmlns="http://www.w3.org/2000/svg">
<path d="M0.984242 27V24.5535L8.80194 17.1295C9.4581 16.5108 9.94554 15.9671 10.2642 15.4984C10.583 15.0297 10.7892 14.5985 10.8829 14.2048C10.9954 13.7924 11.0516 13.4081 11.0516 13.0519C11.0516 12.152 10.7423 11.4583 10.1236 10.9709C9.50497 10.4647 8.59572 10.2116 7.39588 10.2116C6.43976 10.2116 5.568 10.3804 4.78061 10.7178C4.01196 11.0553 3.34642 11.5708 2.784 12.2645L0.22497 10.296C0.993616 9.26489 2.02473 8.46812 3.3183 7.9057C4.63063 7.32452 6.09293 7.03394 7.70521 7.03394C9.13002 7.03394 10.3674 7.26828 11.4172 7.73697C12.4858 8.18691 13.3013 8.8337 13.8638 9.67733C14.4449 10.521 14.7355 11.524 14.7355 12.6863C14.7355 13.3237 14.6512 13.9611 14.4824 14.5985C14.3137 15.2172 13.995 15.8734 13.5263 16.567C13.0576 17.2607 12.3733 18.0387 11.4735 18.9011L4.75249 25.2846L3.99321 23.9067H15.4948V27H0.984242Z" fill="#212123"/>
<path d="M25.7675 25.7657L25.4421 26.1248V19.1455H26.8783V26.1248L26.5305 25.7657H30.1099L29.7621 26.1248V19.1455H31.1983V27H21.1109V19.1455H22.5471V26.1248L22.2105 25.7657H25.7675ZM31.9858 27L35.5204 19.1455H36.9566L40.5024 27H38.9764L35.9355 19.9197H36.519L33.4894 27H31.9858ZM33.6128 25.1822L34.0055 24.0377H38.247L38.6397 25.1822H33.6128ZM41.2973 27V19.1455H46.6272L46.616 20.3797H42.3857L42.7223 20.0319L42.7336 27H41.2973Z" fill="#212123"/>
</svg>
