<svg width="47" height="34" viewBox="0 0 47 34" fill="none" xmlns="http://www.w3.org/2000/svg">
<path d="M7.424 27.2812C6.03669 27.2812 4.6775 27.0844 3.34642 26.6907C2.0341 26.2782 0.928 25.7158 0.0281212 25.0034L1.60291 22.1632C2.31531 22.7443 3.1777 23.213 4.19006 23.5692C5.20242 23.9254 6.26166 24.1035 7.36776 24.1035C8.68008 24.1035 9.70182 23.8411 10.433 23.3161C11.1641 22.7724 11.5297 22.0413 11.5297 21.1227C11.5297 20.2228 11.1922 19.5104 10.5173 18.9855C9.84242 18.4605 8.75507 18.1981 7.25527 18.1981H5.45552V15.6953L11.0798 9.00242L11.5578 10.3804H0.984242V7.31515H14.3981V9.7617L8.77382 16.4545L6.86158 15.3297H7.9583C10.3767 15.3297 12.1859 15.8734 13.3857 16.9607C14.6043 18.0293 15.2136 19.4073 15.2136 21.0945C15.2136 22.2006 14.9324 23.2224 14.3699 24.1598C13.8075 25.0971 12.9451 25.8564 11.7828 26.4376C10.6392 27 9.18626 27.2812 7.424 27.2812Z" fill="#212123"/>
<path d="M25.7675 25.7657L25.4421 26.1248V19.1455H26.8783V26.1248L26.5305 25.7657H30.1099L29.7621 26.1248V19.1455H31.1983V27H21.1109V19.1455H22.5471V26.1248L22.2105 25.7657H25.7675ZM31.9858 27L35.5204 19.1455H36.9566L40.5024 27H38.9764L35.9355 19.9197H36.519L33.4894 27H31.9858ZM33.6128 25.1822L34.0055 24.0377H38.247L38.6397 25.1822H33.6128ZM41.2973 27V19.1455H46.6272L46.616 20.3797H42.3857L42.7223 20.0319L42.7336 27H41.2973Z" fill="#212123"/>
</svg>
